<svg width="110" height="50" viewBox="0 0 110 50" fill="none" xmlns="http://www.w3.org/2000/svg">
<g clip-path="url(#clip0_585_5172)">
<path d="M38.2549 10.3982H42.4426C42.946 10.3982 43.3541 10.8009 43.3541 11.2976V37.3675C43.3541 37.8642 42.9447 38.2681 42.4413 38.2681H38.2536C37.7502 38.2681 37.3408 37.8642 37.3408 37.3675V11.2976C37.3408 10.8009 37.7502 10.397 38.2536 10.397L38.2549 10.3982Z" fill="white"/>
<path d="M19.6875 10.4048C15.7223 10.4048 12.1359 12.0291 9.57041 14.6369C8.16434 12.6977 5.59884 10.6582 0.968737 10.4073C0.444958 10.3784 0 10.7899 0 11.3066V15.4133C0 15.8862 0.375036 16.2713 0.853048 16.3076C4.91869 16.6175 5.47426 19.1474 5.51367 20.2889V49.1033C5.51367 49.5988 5.92176 50.0014 6.42392 50.0014H10.5786C11.082 50.0014 11.4888 49.6 11.4888 49.1033V35.6519C13.8013 37.2863 16.6313 38.2534 19.6875 38.2534C27.4692 38.2534 33.799 32.0068 33.799 24.3303C33.799 16.6538 27.4692 10.406 19.6875 10.406V10.4048ZM19.6875 32.2439C15.2633 32.2439 11.6643 28.6929 11.6643 24.3278C11.6643 19.9628 15.2633 16.4118 19.6875 16.4118C24.1116 16.4118 27.7107 19.9628 27.7107 24.3278C27.7107 28.6929 24.1116 32.2439 19.6875 32.2439Z" fill="white"/>
<path d="M42.6769 6.67422C44.3234 5.40596 44.616 3.06094 43.3306 1.43647C42.0452 -0.187999 39.6684 -0.476762 38.022 0.7915C36.3755 2.05976 36.0828 4.40478 37.3683 6.02925C38.6537 7.65372 41.0305 7.94249 42.6769 6.67422Z" fill="white"/>
<path d="M55.2715 17.5958H54.3168C54.182 17.5958 54.1324 17.6949 54.1324 17.8103V19.8762C54.1324 21.0164 54.2494 21.3964 54.3842 21.6448C54.5011 21.843 54.7185 21.9584 54.8698 22.0248C55.0707 22.1076 55.1215 22.2067 55.1215 22.3221C55.1215 22.5203 54.9537 22.5868 54.7363 22.5868H52.2407C52.0399 22.5868 51.8555 22.5203 51.8555 22.3221C51.8555 22.2067 51.9229 22.1076 52.1073 22.0248C52.2573 21.9584 52.4759 21.843 52.5929 21.6448C52.7442 21.3964 52.8611 21.0164 52.8611 19.8762V13.2659C52.8611 11.9764 52.8611 11.7118 52.4086 11.4647C52.2077 11.3493 51.9394 11.2991 51.9394 11.0683C51.9394 10.8864 52.0907 10.7873 52.3577 10.7873H55.1546C56.7285 10.7873 58.3875 10.7873 59.4592 11.8786C60.0453 12.4568 60.297 13.2496 60.297 14.0109C60.297 14.6557 60.1127 15.2665 59.8114 15.7457C59.041 16.9849 57.6336 17.5971 55.2715 17.5971V17.5958ZM58.8732 14.1075C58.8732 13.5456 58.7562 12.9999 58.4714 12.5873C57.8014 11.5951 56.6954 11.4634 55.3389 11.4634H54.4681C54.2164 11.4634 54.1337 11.5951 54.1337 11.8108V16.6701C54.1337 16.8357 54.2011 16.9185 54.4185 16.9185H55.1889C56.7806 16.9185 57.9019 16.6864 58.5223 15.629C58.7562 15.2327 58.8744 14.6707 58.8744 14.1088L58.8732 14.1075ZM67.1481 14.7359C67.1481 15.0658 67.0311 15.397 66.679 15.397C66.2607 15.397 66.1438 15.0495 65.6403 15.0495C65.2882 15.0495 64.8699 15.2314 64.5178 15.7933C64.0487 16.5535 63.9648 17.429 63.9648 19.8749C63.9648 21.0151 64.0817 21.3952 64.2165 21.6272C64.3334 21.8254 64.5851 21.9408 64.7021 22.0073C64.903 22.1064 64.9538 22.2055 64.9538 22.3209C64.9538 22.519 64.786 22.5855 64.5686 22.5855H62.0896C61.8887 22.5855 61.7044 22.519 61.7044 22.3209C61.7044 22.2055 61.7717 22.1064 61.9561 22.0073C62.1239 21.9245 62.3413 21.8091 62.476 21.5607C62.6095 21.3124 62.71 21.0151 62.71 19.8749C62.71 18.7347 62.6934 16.7516 62.6934 16.6024C62.6934 15.8096 62.6426 15.3957 62.4583 15.1975C62.3082 15.032 62.1735 14.9993 61.9396 14.9166C61.7895 14.8664 61.5709 14.7836 61.5709 14.603C61.5709 14.4224 61.6383 14.322 61.9891 14.2392C62.4583 14.1401 62.6591 14.0737 63.0952 13.8918C63.2795 13.809 63.3799 13.7927 63.4804 13.7927C63.7321 13.7927 63.816 13.9419 63.816 14.1891V15.5274C63.816 15.5613 63.8325 15.5763 63.8491 15.5763C63.8656 15.5763 63.8821 15.5437 63.8999 15.5099C64.2177 14.8977 65.156 13.7751 66.1946 13.7751C66.932 13.7751 67.1494 14.3044 67.1494 14.7334L67.1481 14.7359ZM71.4375 22.3058C71.4375 22.5203 71.2697 22.5868 71.0523 22.5868H68.5567C68.3393 22.5868 68.1715 22.5203 68.1715 22.3058C68.1715 22.2067 68.2389 22.1239 68.4232 22.0248C68.5745 21.942 68.7919 21.8266 68.9089 21.6285C69.0767 21.3801 69.1606 21.0164 69.1606 19.8599V16.0919C69.1606 15.629 69.1441 15.3644 68.9928 15.1825C68.8758 15.0508 68.6749 14.968 68.4741 14.9191C68.2058 14.8526 68.0889 14.7698 68.0889 14.6218C68.0889 14.4738 68.1385 14.3734 68.5415 14.2743C69.111 14.1414 69.3793 14.0599 69.8649 13.8617C69.9819 13.8128 70.0658 13.7789 70.1497 13.7789C70.3671 13.7789 70.451 13.9445 70.451 14.1753V19.8611C70.451 21.0176 70.5514 21.3977 70.7027 21.6297C70.8374 21.8279 71.037 21.9433 71.1883 22.0261C71.3892 22.1415 71.44 22.208 71.44 22.3071L71.4375 22.3058ZM69.7619 12.29C69.4276 12.29 68.7233 11.58 68.7233 11.2489C68.7233 10.9178 69.4263 10.2241 69.7619 10.2241C70.1141 10.2241 70.8171 10.9178 70.8171 11.2489C70.8171 11.5964 70.1141 12.29 69.7619 12.29ZM81.0194 14.5879C80.7015 14.7861 80.5337 14.9517 80.2998 15.2816C80.1155 15.5462 79.8981 15.9426 79.6972 16.4054L77.0338 22.5868C77.0008 22.6696 76.9334 22.7022 76.8495 22.7022H76.2138C76.0968 22.7022 76.046 22.6859 76.0129 22.5868L73.7678 16.4054C73.5339 15.7444 73.2656 15.0997 72.9643 14.8024C72.7965 14.6368 72.6122 14.5541 72.4952 14.5051C72.3274 14.4387 72.2613 14.3559 72.2613 14.2242C72.2613 14.026 72.4113 13.9595 72.7635 13.9595H75.1917C75.4434 13.9595 75.5769 14.0423 75.5769 14.2079C75.5769 14.5716 74.8065 14.5051 74.8065 15.1825C74.8065 15.4145 74.8904 15.7783 75.1243 16.4218L76.8151 21.0653C76.8317 21.1154 76.8482 21.1481 76.8825 21.1481C76.9168 21.1481 76.9321 21.1154 76.9499 21.0653L78.2403 17.8103C78.6929 16.6701 79.0107 15.8761 79.0107 15.348C79.0107 14.455 78.2072 14.6205 78.2072 14.2242C78.2072 14.026 78.375 13.9595 78.6598 13.9595H80.8871C81.2228 13.9595 81.3728 14.026 81.3728 14.2079C81.3728 14.406 81.2215 14.4562 81.0206 14.5879H81.0194ZM89.2447 21.9094C89.2447 22.2895 88.7591 22.7687 88.1895 22.7687C87.6874 22.7687 87.1839 22.4375 87.0835 21.4303C87.0835 21.3977 87.0835 21.3638 87.0504 21.3638C87.0339 21.3638 87.0174 21.3801 86.9831 21.4303C86.43 22.3221 85.3749 22.7687 84.3362 22.7687C83.0128 22.7687 81.7402 21.991 81.7402 20.6539C81.7402 20.0091 82.0758 19.3807 82.728 18.9342C83.6319 18.3058 84.654 18.174 85.6266 17.7275C86.6322 17.2647 87.0339 16.6375 87.0339 15.9589C87.0339 15.1486 86.514 14.455 85.5096 14.455C84.9566 14.455 84.5383 14.6205 84.1697 14.9178C83.5671 15.397 83.3153 15.9915 83.1145 16.2562C83.0306 16.3891 82.9301 16.5045 82.7623 16.5045C82.3936 16.5045 82.3936 16.0743 82.3936 15.7783C82.3936 15.3644 82.4776 14.82 82.6619 14.5716C82.8958 14.2907 83.3815 14.0762 83.9179 13.9445C84.3362 13.8291 84.8396 13.7789 85.291 13.7789C86.4809 13.7789 87.1839 14.1753 87.653 14.6883C88.3065 15.4158 88.3396 16.4067 88.3396 17.2496C88.3396 18.1414 88.2887 19.1173 88.2887 20.0919C88.2887 20.8357 88.2887 21.6949 88.7578 21.6949C88.8252 21.6949 88.9422 21.6611 89.0095 21.6611C89.2269 21.6611 89.2447 21.843 89.2447 21.9094ZM87.0339 17.8103C87.0339 17.7777 87.0174 17.7438 86.9831 17.7438C86.9665 17.7438 86.95 17.7438 86.9157 17.7764C86.2457 18.3221 84.9897 18.6356 84.0845 19.1976C83.4476 19.5939 83.1806 20.1396 83.1806 20.6689C83.1806 21.5118 83.8162 22.0411 84.6375 22.0411C85.3583 22.0411 86.1783 21.6448 86.6309 20.7191C87.0161 19.9263 87.0327 19.0997 87.0327 18.0587V17.8103H87.0339ZM96.214 21.1656C96.214 21.281 96.1467 21.414 96.0793 21.5294C95.7271 22.0913 94.9402 22.7687 93.7846 22.7687C92.8794 22.7687 92.3111 22.3058 92.0429 21.8593C91.7416 21.3462 91.6742 20.6865 91.6742 19.959C91.6742 18.5704 91.7746 17.0013 91.7746 15.2327C91.7746 15.1173 91.7238 15.0508 91.6068 15.0508H90.5682C90.4347 15.0508 90.3838 15.0006 90.3838 14.8852V14.4224C90.3838 14.3396 90.4169 14.2894 90.5173 14.2568C91.0869 14.0749 91.406 13.893 91.6068 13.6622C91.8751 13.3487 91.9246 12.9347 92.0925 12.142C92.109 12.0429 92.1598 11.9764 92.2768 11.9764H92.8298C92.9468 11.9764 92.9976 12.0429 92.9976 12.142V13.9106C92.9976 14.1589 93.0815 14.2405 93.3663 14.2405C93.6002 14.2405 93.8354 14.2405 94.2537 14.2242C94.6897 14.2079 95.2084 14.1414 95.5606 14.1414C95.7945 14.1414 96.0297 14.1577 96.0297 14.406C96.0297 14.5051 95.9954 14.5553 95.9789 14.6544C95.8949 15.0508 95.7271 15.1336 95.2758 15.1336C94.9745 15.1336 94.5728 15.0834 94.1202 15.0671C93.7515 15.0508 93.5176 15.0508 93.1985 15.0508C93.0637 15.0508 92.9976 15.1336 92.9976 15.2653C92.9811 15.5462 92.9646 17.0339 92.9646 18.1577C92.9646 19.4309 92.9976 20.3566 93.1985 20.8847C93.4159 21.4629 93.8685 21.6611 94.3211 21.6611C95.2415 21.6611 95.6445 20.9336 95.9458 20.9336C96.1632 20.9336 96.214 21.0991 96.214 21.1644V21.1656ZM104.874 20.8019C104.874 21.1493 104.372 21.6774 103.702 22.1239C103.065 22.5366 102.262 22.7687 101.458 22.7687C99.2131 22.7687 97.4879 21.0665 97.4879 18.5039C97.4879 16.0743 99.1635 13.7776 101.725 13.7776C102.68 13.7776 103.534 14.1251 104.12 14.687C104.657 15.2151 105.059 15.9765 105.059 16.7692C105.059 17.6121 104.741 17.9596 103.768 17.9596H99.0274C98.9105 17.9596 98.8431 17.9922 98.8431 18.1251C98.8431 18.968 98.9944 19.8774 99.4966 20.5874C99.9987 21.3149 100.736 21.8605 101.758 21.8605C102.379 21.8605 102.93 21.6623 103.299 21.4478C104.036 21.0176 104.237 20.4732 104.555 20.4732C104.739 20.4732 104.873 20.6212 104.873 20.8031L104.874 20.8019ZM99.1126 17.2973H102.11C103.133 17.2973 103.651 17.0991 103.651 16.2399C103.651 15.3807 102.932 14.4387 101.59 14.4387C99.7318 14.4387 98.9613 16.4381 98.9613 17.1493C98.9613 17.2647 99.0122 17.2973 99.1126 17.2973ZM68.5885 26.7072C68.5885 26.8728 68.4537 26.9556 68.2198 27.0873C67.8842 27.2855 67.6999 27.4674 67.5003 27.7985C67.3324 28.0795 67.1151 28.5749 66.9803 28.9224C66.6447 29.8142 63.7652 38.0614 63.7143 38.2596C63.6813 38.3261 63.6304 38.3913 63.5465 38.3913H63.2121C63.0952 38.3913 63.0609 38.3248 63.0443 38.2596L59.8279 28.5749C59.8114 28.5248 59.7949 28.5085 59.7605 28.5085C59.7262 28.5085 59.7097 28.5248 59.6932 28.5749L56.0915 38.2596C56.0585 38.3261 56.0076 38.3913 55.9237 38.3913H55.5716C55.4546 38.3913 55.4203 38.3248 55.4038 38.2596L52.5726 28.8233C52.3386 28.0632 52.2204 27.6003 51.9191 27.2867C51.7691 27.1375 51.6013 27.0722 51.45 27.0221C51.2987 26.9732 51.2161 26.8904 51.2161 26.7411C51.2161 26.4927 51.5174 26.4601 51.7691 26.4601H54.0638C54.2977 26.4601 54.416 26.5592 54.416 26.7248C54.416 26.8578 54.332 26.923 54.1642 27.0221C53.9964 27.1212 53.6951 27.2366 53.6951 27.6003C53.6951 27.8311 53.7778 28.1949 53.9621 28.8396C54.2799 29.9472 55.7546 34.9043 56.0559 35.8964C56.0725 35.9291 56.0725 35.978 56.1233 35.978C56.1742 35.978 56.1907 35.9617 56.2072 35.9115L59.7415 26.4752C59.7745 26.3761 59.8254 26.3422 59.9093 26.3422H60.3275C60.428 26.3422 60.4623 26.3748 60.4953 26.4752C60.6123 26.8226 63.6444 35.9291 63.6444 35.9291C63.6609 35.978 63.6774 35.9955 63.7118 35.9955C63.7461 35.9955 63.7626 35.9792 63.7791 35.9454L65.723 30.1617C66.1082 29.0215 66.276 28.294 66.276 27.8474C66.276 27.4511 66.1082 27.2203 65.7904 27.0384C65.6391 26.9556 65.5386 26.8565 65.5386 26.7411C65.5386 26.5918 65.6225 26.4601 65.9569 26.4601H68.1346C68.4359 26.4601 68.5872 26.5266 68.5872 26.7085L68.5885 26.7072ZM76.2443 36.4747C76.2443 36.8221 75.7422 37.3502 75.0722 37.7967C74.4353 38.2094 73.6318 38.4415 72.8283 38.4415C70.5832 38.4415 68.858 36.7393 68.858 34.1768C68.858 31.7471 70.5336 29.4505 73.0953 29.4505C74.05 29.4505 74.9044 29.7979 75.4904 30.3598C76.0257 30.8879 76.4287 31.6493 76.4287 32.442C76.4287 33.2849 76.1108 33.6324 75.1396 33.6324H70.3988C70.2819 33.6324 70.2145 33.665 70.2145 33.798C70.2145 34.6409 70.3658 35.5502 70.868 36.2602C71.3701 36.9877 72.1075 37.5333 73.1296 37.5333C73.75 37.5333 74.3018 37.3352 74.6704 37.1207C75.4078 36.6904 75.6087 36.1461 75.9265 36.1461C76.1108 36.1461 76.2443 36.2941 76.2443 36.4759V36.4747ZM70.4827 32.9713H73.4805C74.5014 32.9713 75.0213 32.7732 75.0213 31.9139C75.0213 31.0547 74.3018 30.1127 72.9618 30.1127C71.1019 30.1127 70.3315 32.1121 70.3315 32.8233C70.3315 32.9387 70.3823 32.9713 70.4827 32.9713ZM85.9444 37.5823C85.9444 37.9623 85.4588 38.4415 84.8892 38.4415C84.3871 38.4415 83.8836 38.1103 83.7832 37.1031C83.7832 37.0705 83.7832 37.0366 83.7501 37.0366C83.7336 37.0366 83.7171 37.0529 83.6828 37.1031C83.1297 37.9949 82.0745 38.4415 81.0359 38.4415C79.7125 38.4415 78.4399 37.6638 78.4399 36.3267C78.4399 35.6819 78.7755 35.0535 79.4277 34.607C80.3316 33.9786 81.3537 33.8469 82.3263 33.4003C83.3319 32.9375 83.7336 32.3103 83.7336 31.6317C83.7336 30.8214 83.2136 30.1278 82.2093 30.1278C81.6563 30.1278 81.238 30.2934 80.8693 30.5906C80.2667 31.0698 80.015 31.6643 79.8142 31.929C79.7303 32.062 79.6298 32.1774 79.462 32.1774C79.0933 32.1774 79.0933 31.7471 79.0933 31.4511C79.0933 31.0372 79.1772 30.4928 79.3616 30.2444C79.5955 29.9635 80.0811 29.749 80.6176 29.6173C81.0359 29.5019 81.5393 29.4517 81.9906 29.4517C83.1806 29.4517 83.8836 29.8481 84.3527 30.3611C85.0062 31.0886 85.0392 32.0795 85.0392 32.9224C85.0392 33.8143 84.9884 34.7901 84.9884 35.7647C84.9884 36.5086 84.9884 37.3678 85.4575 37.3678C85.5249 37.3678 85.6418 37.3339 85.7092 37.3339C85.9266 37.3339 85.9444 37.5158 85.9444 37.5823ZM83.7336 33.4831C83.7336 33.4505 83.7171 33.4166 83.6828 33.4166C83.6662 33.4166 83.6497 33.4166 83.6154 33.4492C82.9454 33.9949 81.6893 34.3085 80.7842 34.8704C80.1472 35.2668 79.8803 35.8124 79.8803 36.3417C79.8803 37.1846 80.5159 37.714 81.3372 37.714C82.058 37.714 82.878 37.3176 83.3306 36.3919C83.7158 35.5992 83.7323 34.7726 83.7323 33.7315V33.4831H83.7336ZM91.3386 37.9786C91.3386 38.1931 91.1708 38.2596 90.9534 38.2596H88.4578C88.2404 38.2596 88.0726 38.1931 88.0726 37.9786C88.0726 37.8795 88.14 37.7967 88.3243 37.6977C88.4756 37.6149 88.693 37.4995 88.8099 37.3013C88.9778 37.0529 89.0617 36.6892 89.0617 35.5327V28.2275C89.0617 27.7646 89.0451 27.5 88.8938 27.3181C88.7769 27.1851 88.576 27.1036 88.3752 27.0534C88.1069 26.987 87.9899 26.9054 87.9899 26.7562C87.9899 26.6069 88.0408 26.5078 88.4425 26.4087C89.0121 26.277 89.2803 26.1942 89.766 25.996C89.8829 25.9459 89.9668 25.9132 90.0507 25.9132C90.2681 25.9132 90.352 26.0788 90.352 26.3096V35.5314C90.352 36.6879 90.4525 37.068 90.6038 37.3C90.7385 37.4982 90.9394 37.6136 91.0894 37.6964C91.2903 37.8118 91.3411 37.8783 91.3411 37.9774L91.3386 37.9786ZM99.1292 36.8384C99.1292 36.9538 99.0618 37.0868 98.9944 37.2022C98.6422 37.7641 97.8553 38.4415 96.6997 38.4415C95.7958 38.4415 95.2262 37.9786 94.958 37.5321C94.6567 37.0191 94.5893 36.3593 94.5893 35.6318C94.5893 34.2432 94.6897 32.6741 94.6897 30.9055C94.6897 30.7901 94.6402 30.7236 94.5219 30.7236H93.4833C93.3485 30.7236 93.2989 30.6734 93.2989 30.558V30.0952C93.2989 30.0124 93.332 29.9622 93.4324 29.9296C94.002 29.7477 94.3211 29.5658 94.5207 29.3351C94.7889 29.0215 94.8385 28.6075 95.0063 27.8148C95.0228 27.7157 95.0737 27.6492 95.1906 27.6492H95.7437C95.8606 27.6492 95.9115 27.7157 95.9115 27.8148V29.5834C95.9115 29.8318 95.9954 29.9133 96.2802 29.9133C96.5141 29.9133 96.7493 29.9133 97.1675 29.897C97.6036 29.8807 98.1223 29.8142 98.4744 29.8142C98.7096 29.8142 98.9435 29.8305 98.9435 30.0789C98.9435 30.178 98.9105 30.2281 98.894 30.3272C98.8101 30.7236 98.6422 30.8064 98.1897 30.8064C97.8884 30.8064 97.4866 30.7562 97.034 30.7399C96.6654 30.7236 96.4314 30.7236 96.1123 30.7236C95.9789 30.7236 95.9115 30.8064 95.9115 30.9381C95.8949 31.2191 95.8784 32.7067 95.8784 33.8306C95.8784 35.1037 95.9115 36.0294 96.1123 36.5575C96.3297 37.1357 96.7823 37.3339 97.2349 37.3339C98.1566 37.3339 98.5583 36.6064 98.8596 36.6064C99.077 36.6064 99.1279 36.772 99.1279 36.8372L99.1292 36.8384ZM110 37.9786C110 38.1931 109.799 38.2596 109.582 38.2596H107.103C106.885 38.2596 106.701 38.1931 106.701 37.9786C106.701 37.8632 106.768 37.7641 106.953 37.6813C107.103 37.6149 107.321 37.4995 107.438 37.3013C107.59 37.0529 107.707 36.6729 107.707 35.5327V32.723C107.707 31.3018 107.037 30.5091 105.764 30.5091C105.229 30.5091 104.658 30.691 104.24 31.1037C103.57 31.7647 103.436 32.6741 103.436 35.5327C103.436 36.6729 103.553 37.0529 103.705 37.3013C103.822 37.4995 104.057 37.6149 104.19 37.6813C104.375 37.7641 104.442 37.8632 104.442 37.9786C104.442 38.1931 104.274 38.2596 104.04 38.2596H101.578C101.377 38.2596 101.176 38.1931 101.176 37.9786C101.176 37.8632 101.243 37.7641 101.428 37.6813C101.579 37.6149 101.813 37.4995 101.93 37.3013C102.081 37.0529 102.198 36.6729 102.198 35.5327V28.7568C102.198 27.9465 102.198 27.5501 101.997 27.3018C101.88 27.1538 101.712 27.1036 101.461 27.0384C101.276 26.9882 101.109 26.9393 101.109 26.7411C101.109 26.5755 101.176 26.4764 101.527 26.3937C102.047 26.2783 102.432 26.1453 102.817 25.9797C102.934 25.9308 103.018 25.9132 103.102 25.9132C103.336 25.9132 103.436 26.0788 103.436 26.2933V30.9042C103.436 30.9368 103.436 30.987 103.469 30.987C103.502 30.987 103.52 30.9544 103.553 30.9042C104.039 30.1943 104.926 29.4505 106.266 29.4505C107.137 29.4505 107.825 29.764 108.293 30.2771C108.895 30.9218 108.996 31.8801 108.996 32.6904V35.5327C108.996 36.6729 109.096 37.0529 109.248 37.3013C109.364 37.4995 109.583 37.6149 109.733 37.6813C109.917 37.7641 110.001 37.8632 110.001 37.9786H110Z" fill="url(#paint0_linear_585_5172)"/>
</g>
<defs>
<linearGradient id="paint0_linear_585_5172" x1="38.1305" y1="57.59" x2="107.733" y2="2.40179" gradientUnits="userSpaceOnUse">
<stop stop-color="#797979"/>
<stop offset="0.09" stop-color="#7D7D7D"/>
<stop offset="0.18" stop-color="#8A8A8A"/>
<stop offset="0.28" stop-color="#9F9F9F"/>
<stop offset="0.38" stop-color="#BDBDBD"/>
<stop offset="0.48" stop-color="#E3E3E3"/>
<stop offset="0.54" stop-color="white"/>
<stop offset="0.61" stop-color="#F9F9F9"/>
<stop offset="0.69" stop-color="#EAEAEA"/>
<stop offset="0.78" stop-color="#D1D1D1"/>
<stop offset="0.85" stop-color="#BBBBBB"/>
<stop offset="0.88" stop-color="#B3B3B3"/>
<stop offset="0.93" stop-color="#9D9D9D"/>
<stop offset="1" stop-color="#797979"/>
</linearGradient>
<clipPath id="clip0_585_5172">
<rect width="110" height="50" fill="white"/>
</clipPath>
</defs>
</svg>
