<svg width="56" height="66" viewBox="0 0 56 66" fill="none" xmlns="http://www.w3.org/2000/svg">
<path fill-rule="evenodd" clip-rule="evenodd" d="M55.8571 5.68216C55.8571 8.34706 53.7079 10.5074 51.0568 10.5074C48.4056 10.5074 46.2564 8.34706 46.2564 5.68216C46.2564 3.01726 48.4056 0.856934 51.0568 0.856934C53.7079 0.856934 55.8571 3.01726 55.8571 5.68216ZM47.2392 15.1426C47.2392 14.66 47.6284 14.2688 48.1085 14.2688H53.9672C54.4473 14.2688 54.8366 14.66 54.8366 15.1426V49.2232C54.8366 49.7058 54.4473 50.0971 53.9672 50.0971H48.1085C47.6284 50.0971 47.2392 49.7058 47.2392 49.2232V15.1426ZM42.8168 32.1639C42.8168 42.0471 34.8462 50.0591 25.0139 50.0591C21.1508 50.0591 17.5751 48.8222 14.6573 46.7211V64.1168C14.6573 64.6834 14.2004 65.1426 13.6367 65.1426H8.11821C7.55456 65.1426 7.09766 64.6834 7.09766 64.1168V26.6548C7.08016 25.1305 5.86383 22.2209 1.30375 21.8943C0.669374 21.8489 0.142822 21.3431 0.142822 20.7038V15.3834C0.142822 14.7636 0.636411 14.2542 1.2527 14.2749C5.95456 14.4326 9.85285 16.282 12.2379 19.7015C15.4733 16.3508 20.0017 14.2688 25.0139 14.2688C34.8462 14.2688 42.8168 22.2807 42.8168 32.1639ZM14.9329 32.1639C14.9329 37.7604 19.4464 42.2972 25.0139 42.2972C30.5815 42.2972 35.0949 37.7604 35.0949 32.1639C35.0949 26.5675 30.5815 22.0307 25.0139 22.0307C19.4464 22.0307 14.9329 26.5675 14.9329 32.1639Z" fill="white"/>
</svg>
