<svg width="48" height="23" viewBox="0 0 48 23" fill="none" xmlns="http://www.w3.org/2000/svg">
<g clip-path="url(#clip0_585_5530)">
<path d="M16.6931 4.78329H18.5204C18.7401 4.78329 18.9182 4.96851 18.9182 5.19699V17.1892C18.9182 17.4177 18.7395 17.6034 18.5199 17.6034H16.6925C16.4728 17.6034 16.2942 17.4177 16.2942 17.1892V5.19699C16.2942 4.96851 16.4728 4.78271 16.6925 4.78271L16.6931 4.78329Z" fill="white"/>
<path d="M8.59091 4.78613C6.86063 4.78613 5.29567 5.53334 4.17618 6.7329C3.56262 5.84087 2.44313 4.90269 0.422722 4.78729C0.194164 4.77402 0 4.96327 0 5.20099V7.09006C0 7.30758 0.163652 7.48472 0.372239 7.50145C2.14634 7.64397 2.38877 8.80776 2.40596 9.33282V22.5874C2.40596 22.8154 2.58404 23.0006 2.80317 23.0006H4.6161C4.83578 23.0006 5.0133 22.8159 5.0133 22.5874V16.3998C6.0224 17.1516 7.25728 17.5965 8.59091 17.5965C11.9865 17.5965 14.7487 14.7231 14.7487 11.1919C14.7487 7.6607 11.9865 4.78671 8.59091 4.78671V4.78613ZM8.59091 14.8321C6.66036 14.8321 5.08986 13.1987 5.08986 11.1907C5.08986 9.1828 6.66036 7.54934 8.59091 7.54934C10.5214 7.54934 12.092 9.1828 12.092 11.1907C12.092 13.1987 10.5214 14.8321 8.59091 14.8321Z" fill="white"/>
<path d="M18.6227 3.07012C19.3411 2.48672 19.4688 1.40801 18.9079 0.660757C18.347 -0.0864989 17.3099 -0.21933 16.5914 0.36407C15.873 0.947471 15.7452 2.02618 16.3062 2.77344C16.8671 3.52069 17.9042 3.65352 18.6227 3.07012Z" fill="white"/>
<path d="M24.1185 8.0941H23.7019C23.6431 8.0941 23.6215 8.13968 23.6215 8.19276V9.14307C23.6215 9.66755 23.6725 9.84238 23.7313 9.95662C23.7824 10.0478 23.8772 10.1009 23.9432 10.1315C24.0309 10.1695 24.0531 10.2151 24.0531 10.2682C24.0531 10.3594 23.9799 10.3899 23.885 10.3899H22.796C22.7084 10.3899 22.6279 10.3594 22.6279 10.2682C22.6279 10.2151 22.6573 10.1695 22.7378 10.1315C22.8032 10.1009 22.8986 10.0478 22.9497 9.95662C23.0157 9.84238 23.0667 9.66755 23.0667 9.14307V6.10233C23.0667 5.50918 23.0667 5.38744 22.8692 5.27377C22.7816 5.22069 22.6645 5.19761 22.6645 5.09144C22.6645 5.00778 22.7305 4.96219 22.847 4.96219H24.0675C24.7543 4.96219 25.4782 4.96219 25.9459 5.46418C26.2016 5.73017 26.3115 6.09483 26.3115 6.44506C26.3115 6.74163 26.231 7.02263 26.0996 7.24304C25.7634 7.8131 25.1493 8.09468 24.1185 8.09468V8.0941ZM25.6902 6.48949C25.6902 6.231 25.6391 5.98001 25.5149 5.79018C25.2225 5.33378 24.7399 5.27319 24.1479 5.27319H23.7679C23.6581 5.27319 23.622 5.33378 23.622 5.43302V7.66828C23.622 7.74444 23.6514 7.78252 23.7463 7.78252H24.0825C24.777 7.78252 25.2663 7.67578 25.537 7.18938C25.6391 7.00705 25.6907 6.74856 25.6907 6.49007L25.6902 6.48949ZM29.301 6.77856C29.301 6.93031 29.25 7.08263 29.0963 7.08263C28.9138 7.08263 28.8628 6.92281 28.6431 6.92281C28.4894 6.92281 28.3069 7.00647 28.1533 7.26496C27.9486 7.61462 27.9119 8.01736 27.9119 9.14249C27.9119 9.66698 27.963 9.8418 28.0218 9.94855C28.0728 10.0397 28.1827 10.0928 28.2337 10.1234C28.3213 10.169 28.3435 10.2145 28.3435 10.2676C28.3435 10.3588 28.2703 10.3894 28.1754 10.3894H27.0937C27.006 10.3894 26.9256 10.3588 26.9256 10.2676C26.9256 10.2145 26.955 10.169 27.0354 10.1234C27.1087 10.0853 27.2035 10.0322 27.2623 9.91797C27.3206 9.80372 27.3644 9.66698 27.3644 9.14249C27.3644 8.61801 27.3572 7.70578 27.3572 7.63712C27.3572 7.27246 27.335 7.08206 27.2546 6.99089C27.1891 6.91473 27.1303 6.89973 27.0282 6.86165C26.9628 6.83857 26.8673 6.80049 26.8673 6.7174C26.8673 6.63431 26.8967 6.58815 27.0499 6.55007C27.2546 6.50449 27.3422 6.47391 27.5325 6.39025C27.6129 6.35216 27.6568 6.34466 27.7006 6.34466C27.8104 6.34466 27.847 6.41333 27.847 6.52699V7.14264C27.847 7.15822 27.8542 7.16514 27.8615 7.16514C27.8687 7.16514 27.8759 7.15014 27.8836 7.13456C28.0223 6.85299 28.4317 6.33659 28.885 6.33659C29.2067 6.33659 29.3016 6.58008 29.3016 6.77741L29.301 6.77856ZM31.1728 10.2607C31.1728 10.3594 31.0996 10.3899 31.0047 10.3899H29.9157C29.8208 10.3899 29.7476 10.3594 29.7476 10.2607C29.7476 10.2151 29.777 10.177 29.8575 10.1315C29.9235 10.0934 30.0183 10.0403 30.0694 9.94912C30.1426 9.83488 30.1792 9.66755 30.1792 9.13557V7.40229C30.1792 7.18938 30.172 7.06763 30.106 6.98397C30.055 6.92338 29.9673 6.8853 29.8796 6.8628C29.7626 6.83222 29.7116 6.79414 29.7116 6.72605C29.7116 6.65797 29.7332 6.61181 29.9091 6.56623C30.1576 6.50507 30.2746 6.46756 30.4865 6.3764C30.5376 6.3539 30.5742 6.33832 30.6108 6.33832C30.7057 6.33832 30.7423 6.41448 30.7423 6.52065V9.13614C30.7423 9.66813 30.7861 9.84296 30.8521 9.9497C30.9109 10.0409 30.998 10.0939 31.064 10.132C31.1517 10.1851 31.1739 10.2157 31.1739 10.2613L31.1728 10.2607ZM30.4416 5.65343C30.2957 5.65343 29.9884 5.32685 29.9884 5.17453C29.9884 5.0222 30.2952 4.70312 30.4416 4.70312C30.5953 4.70312 30.9021 5.0222 30.9021 5.17453C30.9021 5.33435 30.5953 5.65343 30.4416 5.65343ZM35.354 6.71048C35.2153 6.80164 35.142 6.8778 35.04 7.02955C34.9595 7.1513 34.8647 7.33362 34.777 7.54653L33.6148 10.3899C33.6004 10.428 33.571 10.443 33.5344 10.443H33.257C33.2059 10.443 33.1838 10.4355 33.1693 10.3899L32.1896 7.54653C32.0876 7.24246 31.9705 6.94589 31.839 6.80914C31.7658 6.73298 31.6854 6.6949 31.6343 6.67239C31.5611 6.64181 31.5323 6.60373 31.5323 6.54315C31.5323 6.45198 31.5977 6.4214 31.7514 6.4214H32.811C32.9208 6.4214 32.9791 6.45948 32.9791 6.53565C32.9791 6.70297 32.6429 6.67239 32.6429 6.98397C32.6429 7.09071 32.6795 7.25804 32.7816 7.55404L33.5194 9.69006C33.5266 9.71313 33.5338 9.72814 33.5488 9.72814C33.5638 9.72814 33.5704 9.71313 33.5782 9.69006L34.1413 8.19276C34.3388 7.66828 34.4774 7.30304 34.4774 7.06013C34.4774 6.64931 34.1268 6.72548 34.1268 6.54315C34.1268 6.45198 34.2001 6.4214 34.3243 6.4214H35.2963C35.4427 6.4214 35.5082 6.45198 35.5082 6.53565C35.5082 6.62681 35.4422 6.64989 35.3545 6.71048H35.354ZM38.9432 10.0784C38.9432 10.2532 38.7313 10.4736 38.4828 10.4736C38.2636 10.4736 38.0439 10.3213 38.0001 9.85796C38.0001 9.84296 38.0001 9.82738 37.9857 9.82738C37.9785 9.82738 37.9713 9.83488 37.9563 9.85796C37.715 10.2682 37.2545 10.4736 36.8013 10.4736C36.2238 10.4736 35.6685 10.1159 35.6685 9.5008C35.6685 9.20423 35.815 8.91516 36.0995 8.70975C36.494 8.42068 36.94 8.36009 37.3644 8.15468C37.8032 7.94177 37.9785 7.65328 37.9785 7.34113C37.9785 6.96839 37.7516 6.64931 37.3133 6.64931C37.072 6.64931 36.8895 6.72548 36.7286 6.86222C36.4657 7.08263 36.3558 7.35613 36.2682 7.47787C36.2316 7.53903 36.1877 7.59212 36.1145 7.59212C35.9536 7.59212 35.9536 7.39421 35.9536 7.25804C35.9536 7.06763 35.9903 6.81722 36.0707 6.70297C36.1728 6.57373 36.3847 6.47506 36.6188 6.41448C36.8013 6.3614 37.021 6.33832 37.2179 6.33832C37.7372 6.33832 38.0439 6.52065 38.2487 6.75663C38.5338 7.09129 38.5482 7.54711 38.5482 7.93485C38.5482 8.34509 38.526 8.79399 38.526 9.24231C38.526 9.58447 38.526 9.9797 38.7307 9.9797C38.7601 9.9797 38.8112 9.96413 38.8406 9.96413C38.9354 9.96413 38.9432 10.0478 38.9432 10.0784ZM37.9785 8.19276C37.9785 8.17776 37.9713 8.16218 37.9563 8.16218C37.9491 8.16218 37.9419 8.16218 37.9269 8.17719C37.6345 8.42818 37.0864 8.57242 36.6915 8.83092C36.4135 9.01325 36.297 9.26424 36.297 9.50773C36.297 9.89546 36.5744 10.139 36.9328 10.139C37.2473 10.139 37.6051 9.95662 37.8026 9.53081C37.9707 9.16615 37.9779 8.78591 37.9779 8.30701V8.19276H37.9785ZM41.9844 9.73621C41.9844 9.7893 41.955 9.85046 41.9256 9.90354C41.7719 10.162 41.4285 10.4736 40.9242 10.4736C40.5292 10.4736 40.2813 10.2607 40.1642 10.0553C40.0327 9.8193 40.0033 9.5158 40.0033 9.18115C40.0033 8.54242 40.0472 7.82061 40.0472 7.00705C40.0472 6.95397 40.025 6.92338 39.9739 6.92338H39.5207C39.4625 6.92338 39.4403 6.90031 39.4403 6.84722V6.63431C39.4403 6.59623 39.4547 6.57315 39.4985 6.55815C39.747 6.47449 39.8863 6.39082 39.9739 6.28466C40.091 6.14041 40.1126 5.95 40.1859 5.58534C40.1931 5.53976 40.2153 5.50918 40.2663 5.50918H40.5076C40.5586 5.50918 40.5808 5.53976 40.5808 5.58534V6.3989C40.5808 6.51314 40.6174 6.55065 40.7417 6.55065C40.8438 6.55065 40.9464 6.55065 41.1289 6.54315C41.3192 6.53565 41.5455 6.50507 41.6992 6.50507C41.8013 6.50507 41.9039 6.51257 41.9039 6.62681C41.9039 6.67239 41.8889 6.69547 41.8817 6.74106C41.8451 6.92339 41.7719 6.96147 41.575 6.96147C41.4435 6.96147 41.2682 6.93839 41.0707 6.93089C40.9098 6.92339 40.8077 6.92338 40.6685 6.92338C40.6097 6.92338 40.5808 6.96147 40.5808 7.02205C40.5736 7.1513 40.5664 7.83561 40.5664 8.35259C40.5664 8.93824 40.5808 9.36406 40.6685 9.60697C40.7633 9.87296 40.9608 9.96413 41.1583 9.96413C41.56 9.96413 41.7358 9.62947 41.8673 9.62947C41.9622 9.62947 41.9844 9.70563 41.9844 9.73564V9.73621ZM45.7633 9.56889C45.7633 9.72871 45.5442 9.97163 45.2519 10.177C44.9739 10.3669 44.6233 10.4736 44.2727 10.4736C43.293 10.4736 42.5402 9.69063 42.5402 8.51184C42.5402 7.39421 43.2714 6.33774 44.3892 6.33774C44.8058 6.33774 45.1786 6.49757 45.4344 6.75606C45.6685 6.99897 45.8438 7.3492 45.8438 7.71386C45.8438 8.1016 45.7051 8.26143 45.2807 8.26143H43.212C43.161 8.26143 43.1316 8.27643 43.1316 8.33759C43.1316 8.72533 43.1976 9.14365 43.4167 9.47022C43.6359 9.80488 43.9576 10.0559 44.4036 10.0559C44.6744 10.0559 44.9151 9.9647 45.076 9.86604C45.3978 9.66813 45.4854 9.41772 45.6241 9.41772C45.7045 9.41772 45.7628 9.4858 45.7628 9.56946L45.7633 9.56889ZM43.2492 7.95677H44.5573C45.0033 7.95677 45.2297 7.86561 45.2297 7.47037C45.2297 7.07513 44.9157 6.64181 44.3304 6.64181C43.5194 6.64181 43.1832 7.56154 43.1832 7.88869C43.1832 7.94177 43.2054 7.95677 43.2492 7.95677ZM29.9296 12.2854C29.9296 12.3615 29.8708 12.3996 29.7687 12.4602C29.6222 12.5514 29.5418 12.635 29.4547 12.7873C29.3815 12.9166 29.2866 13.1445 29.2278 13.3043C29.0814 13.7146 27.8248 17.5083 27.8027 17.5994C27.7882 17.63 27.766 17.66 27.7294 17.66H27.5835C27.5325 17.66 27.5175 17.6294 27.5103 17.5994L26.1068 13.1445C26.0996 13.1214 26.0924 13.1139 26.0774 13.1139C26.0624 13.1139 26.0552 13.1214 26.048 13.1445L24.4764 17.5994C24.4619 17.63 24.4397 17.66 24.4031 17.66H24.2495C24.1984 17.66 24.1834 17.6294 24.1762 17.5994L22.9408 13.2587C22.8387 12.9091 22.7871 12.6962 22.6557 12.5519C22.5902 12.4833 22.517 12.4533 22.451 12.4302C22.3849 12.4077 22.3489 12.3696 22.3489 12.3009C22.3489 12.1867 22.4804 12.1717 22.5902 12.1717H23.5915C23.6936 12.1717 23.7452 12.2173 23.7452 12.2934C23.7452 12.3546 23.7086 12.3846 23.6353 12.4302C23.5621 12.4758 23.4306 12.5288 23.4306 12.6962C23.4306 12.8023 23.4667 12.9697 23.5471 13.2662C23.6858 13.7757 24.3293 16.056 24.4608 16.5124C24.468 16.5274 24.468 16.5499 24.4902 16.5499C24.5124 16.5499 24.5196 16.5424 24.5268 16.5193L26.0691 12.1786C26.0835 12.133 26.1057 12.1175 26.1423 12.1175H26.3248C26.3686 12.1175 26.3836 12.1325 26.398 12.1786C26.4491 12.3384 27.7721 16.5274 27.7721 16.5274C27.7794 16.5499 27.7866 16.558 27.8015 16.558C27.8165 16.558 27.8237 16.5505 27.8309 16.5349L28.6792 13.8744C28.8473 13.3499 28.9205 13.0153 28.9205 12.8098C28.9205 12.6275 28.8473 12.5213 28.7086 12.4377C28.6426 12.3996 28.5987 12.354 28.5987 12.3009C28.5987 12.2323 28.6353 12.1717 28.7812 12.1717H29.7315C29.863 12.1717 29.929 12.2023 29.929 12.2859L29.9296 12.2854ZM33.2703 16.7784C33.2703 16.9382 33.0512 17.1811 32.7588 17.3865C32.4809 17.5764 32.1303 17.6831 31.7797 17.6831C30.8 17.6831 30.0472 16.9001 30.0472 15.7213C30.0472 14.6037 30.7784 13.5472 31.8962 13.5472C32.3128 13.5472 32.6856 13.7071 32.9413 13.9656C33.1749 14.2085 33.3507 14.5587 33.3507 14.9234C33.3507 15.3111 33.212 15.4709 32.7882 15.4709H30.7195C30.6685 15.4709 30.6391 15.4859 30.6391 15.5471C30.6391 15.9348 30.7051 16.3531 30.9242 16.6797C31.1434 17.0144 31.4651 17.2654 31.9112 17.2654C32.1819 17.2654 32.4226 17.1742 32.5835 17.0755C32.9053 16.8776 32.9929 16.6272 33.1316 16.6272C33.212 16.6272 33.2703 16.6953 33.2703 16.779V16.7784ZM30.7562 15.1668H32.0643C32.5097 15.1668 32.7366 15.0757 32.7366 14.6804C32.7366 14.2852 32.4226 13.8519 31.8379 13.8519C31.0263 13.8519 30.6901 14.7716 30.6901 15.0988C30.6901 15.1518 30.7123 15.1668 30.7562 15.1668ZM37.5031 17.2879C37.5031 17.4627 37.2911 17.6831 37.0426 17.6831C36.8235 17.6831 36.6038 17.5308 36.56 17.0675C36.56 17.0525 36.56 17.0369 36.5456 17.0369C36.5384 17.0369 36.5311 17.0444 36.5162 17.0675C36.2748 17.4777 35.8144 17.6831 35.3612 17.6831C34.7837 17.6831 34.2284 17.3254 34.2284 16.7103C34.2284 16.4137 34.3748 16.1247 34.6594 15.9192C35.0538 15.6302 35.4999 15.5696 35.9242 15.3642C36.363 15.1513 36.5384 14.8628 36.5384 14.5506C36.5384 14.1779 36.3115 13.8588 35.8732 13.8588C35.6319 13.8588 35.4494 13.935 35.2885 14.0717C35.0255 14.2921 34.9157 14.5656 34.828 14.6874C34.7914 14.7485 34.7476 14.8016 34.6744 14.8016C34.5135 14.8016 34.5135 14.6037 34.5135 14.4675C34.5135 14.2771 34.5501 14.0267 34.6306 13.9125C34.7326 13.7832 34.9445 13.6846 35.1786 13.624C35.3612 13.5709 35.5808 13.5478 35.7778 13.5478C36.297 13.5478 36.6038 13.7301 36.8085 13.9661C37.0937 14.3008 37.1081 14.7566 37.1081 15.1443C37.1081 15.5546 37.0859 16.0035 37.0859 16.4518C37.0859 16.794 37.0859 17.1892 37.2906 17.1892C37.32 17.1892 37.371 17.1736 37.4004 17.1736C37.4953 17.1736 37.5031 17.2573 37.5031 17.2879ZM36.5384 15.4023C36.5384 15.3873 36.5311 15.3717 36.5162 15.3717C36.5089 15.3717 36.5017 15.3717 36.4868 15.3867C36.1944 15.6377 35.6463 15.7819 35.2513 16.0404C34.9734 16.2227 34.8569 16.4737 34.8569 16.7172C34.8569 17.105 35.1343 17.3485 35.4926 17.3485C35.8072 17.3485 36.165 17.1661 36.3625 16.7403C36.5306 16.3756 36.5378 15.9954 36.5378 15.5165V15.4023H36.5384ZM39.8569 17.4702C39.8569 17.5689 39.7837 17.5994 39.6888 17.5994H38.5998C38.5049 17.5994 38.4317 17.5689 38.4317 17.4702C38.4317 17.4246 38.4611 17.3865 38.5416 17.341C38.6076 17.3029 38.7024 17.2498 38.7535 17.1586C38.8267 17.0444 38.8633 16.8771 38.8633 16.3451V12.9847C38.8633 12.7718 38.8561 12.65 38.7901 12.5664C38.7391 12.5052 38.6514 12.4677 38.5638 12.4446C38.4467 12.414 38.3957 12.3765 38.3957 12.3079C38.3957 12.2392 38.4179 12.1936 38.5932 12.148C38.8417 12.0875 38.9587 12.0494 39.1707 11.9582C39.2217 11.9351 39.2583 11.9201 39.2949 11.9201C39.3898 11.9201 39.4264 11.9963 39.4264 12.1025V16.3445C39.4264 16.8765 39.4702 17.0513 39.5362 17.158C39.595 17.2492 39.6827 17.3023 39.7481 17.3404C39.8358 17.3935 39.858 17.424 39.858 17.4696L39.8569 17.4702ZM43.2564 16.9457C43.2564 16.9988 43.227 17.06 43.1976 17.113C43.0439 17.3715 42.7005 17.6831 42.1963 17.6831C41.8018 17.6831 41.5533 17.4702 41.4363 17.2648C41.3048 17.0288 41.2754 16.7253 41.2754 16.3906C41.2754 15.7519 41.3192 15.0301 41.3192 14.2165C41.3192 14.1635 41.2976 14.1329 41.246 14.1329H40.7928C40.7339 14.1329 40.7123 14.1098 40.7123 14.0567V13.8438C40.7123 13.8057 40.7267 13.7826 40.7706 13.7676C41.0191 13.684 41.1583 13.6003 41.2454 13.4942C41.3625 13.3499 41.3841 13.1595 41.4573 12.7948C41.4646 12.7493 41.4867 12.7187 41.5378 12.7187H41.7791C41.8301 12.7187 41.8523 12.7493 41.8523 12.7948V13.6084C41.8523 13.7226 41.8889 13.7601 42.0132 13.7601C42.1153 13.7601 42.2179 13.7601 42.4004 13.7526C42.5907 13.7451 42.817 13.7146 42.9707 13.7146C43.0733 13.7146 43.1754 13.7221 43.1754 13.8363C43.1754 13.8819 43.161 13.905 43.1538 13.9506C43.1172 14.1329 43.0439 14.171 42.8464 14.171C42.715 14.171 42.5397 14.1479 42.3422 14.1404C42.1813 14.1329 42.0792 14.1329 41.94 14.1329C41.8817 14.1329 41.8523 14.171 41.8523 14.2315C41.8451 14.3608 41.8379 15.0451 41.8379 15.5621C41.8379 16.1477 41.8523 16.5736 41.94 16.8165C42.0348 17.0825 42.2323 17.1736 42.4298 17.1736C42.832 17.1736 43.0073 16.839 43.1388 16.839C43.2337 16.839 43.2559 16.9151 43.2559 16.9451L43.2564 16.9457ZM48.0001 17.4702C48.0001 17.5689 47.9125 17.5994 47.8176 17.5994H46.7358C46.641 17.5994 46.5605 17.5689 46.5605 17.4702C46.5605 17.4171 46.5899 17.3715 46.6704 17.3335C46.7358 17.3029 46.8312 17.2498 46.8823 17.1586C46.9483 17.0444 46.9993 16.8695 46.9993 16.3451V15.0526C46.9993 14.3989 46.707 14.0342 46.1517 14.0342C45.9181 14.0342 45.669 14.1179 45.4865 14.3077C45.1942 14.6118 45.1359 15.0301 45.1359 16.3451C45.1359 16.8695 45.1869 17.0444 45.253 17.1586C45.304 17.2498 45.4066 17.3029 45.4649 17.3335C45.5453 17.3715 45.5747 17.4171 45.5747 17.4702C45.5747 17.5689 45.5015 17.5994 45.3994 17.5994H44.3249C44.2372 17.5994 44.1496 17.5689 44.1496 17.4702C44.1496 17.4171 44.179 17.3715 44.2594 17.3335C44.3254 17.3029 44.4275 17.2498 44.4785 17.1586C44.5445 17.0444 44.5956 16.8695 44.5956 16.3451V13.2282C44.5956 12.8554 44.5956 12.6731 44.5079 12.5589C44.4569 12.4908 44.3837 12.4677 44.2738 12.4377C44.1934 12.4146 44.1202 12.3921 44.1202 12.3009C44.1202 12.2248 44.1496 12.1792 44.3027 12.1411C44.5296 12.088 44.6977 12.0269 44.8657 11.9507C44.9168 11.9282 44.9534 11.9201 44.99 11.9201C45.0921 11.9201 45.1359 11.9963 45.1359 12.095V14.216C45.1359 14.231 45.1359 14.2541 45.1503 14.2541C45.1648 14.2541 45.1725 14.239 45.1869 14.216C45.3989 13.8894 45.7861 13.5472 46.3708 13.5472C46.7508 13.5472 47.0509 13.6915 47.2551 13.9275C47.518 14.224 47.5618 14.6649 47.5618 15.0376V16.3451C47.5618 16.8695 47.6057 17.0444 47.6717 17.1586C47.7227 17.2498 47.8181 17.3029 47.8836 17.3335C47.964 17.3715 48.0007 17.4171 48.0007 17.4702H48.0001Z" fill="url(#paint0_linear_585_5530)"/>
</g>
<defs>
<linearGradient id="paint0_linear_585_5530" x1="16.6388" y1="26.4914" x2="48.2317" y2="2.72826" gradientUnits="userSpaceOnUse">
<stop stop-color="#797979"/>
<stop offset="0.09" stop-color="#7D7D7D"/>
<stop offset="0.18" stop-color="#8A8A8A"/>
<stop offset="0.28" stop-color="#9F9F9F"/>
<stop offset="0.38" stop-color="#BDBDBD"/>
<stop offset="0.48" stop-color="#E3E3E3"/>
<stop offset="0.54" stop-color="white"/>
<stop offset="0.61" stop-color="#F9F9F9"/>
<stop offset="0.69" stop-color="#EAEAEA"/>
<stop offset="0.78" stop-color="#D1D1D1"/>
<stop offset="0.85" stop-color="#BBBBBB"/>
<stop offset="0.88" stop-color="#B3B3B3"/>
<stop offset="0.93" stop-color="#9D9D9D"/>
<stop offset="1" stop-color="#797979"/>
</linearGradient>
<clipPath id="clip0_585_5530">
<rect width="48" height="23" fill="white"/>
</clipPath>
</defs>
</svg>
