<svg width="64" height="65" viewBox="0 0 64 65" fill="none" xmlns="http://www.w3.org/2000/svg">
<path d="M49.6758 19.9211H45.7545C45.4114 19.9211 45.1333 20.1993 45.1333 20.5423V43.5608C45.1333 43.9039 45.4114 44.182 45.7545 44.182H49.6758C50.0189 44.182 50.297 43.9039 50.297 43.5608V20.5423C50.297 20.1993 50.0189 19.9211 49.6758 19.9211Z" fill="#21CE99"/>
<path d="M29.9697 19.9265C28.348 19.9258 26.7428 20.2517 25.2498 20.8847C23.7568 21.5176 22.4065 22.4447 21.2794 23.6107C20.0724 21.9231 17.8688 20.1464 13.8906 19.9276C13.7839 19.9217 13.6772 19.9377 13.5768 19.9743C13.4765 20.011 13.3847 20.0677 13.3069 20.1409C13.2292 20.2142 13.1671 20.3025 13.1245 20.4004C13.0819 20.4984 13.0597 20.6039 13.0591 20.7108V24.2856C13.0608 24.484 13.1373 24.6744 13.2734 24.8188C13.4094 24.9632 13.595 25.051 13.7929 25.0645C17.284 25.3338 17.7625 27.5321 17.7958 28.5298V53.6136C17.7958 53.821 17.8782 54.0199 18.0249 54.1666C18.1716 54.3133 18.3705 54.3957 18.5779 54.3957H22.1463C22.249 54.3957 22.3506 54.3755 22.4454 54.3361C22.5403 54.2968 22.6264 54.2392 22.699 54.1666C22.7715 54.0939 22.829 54.0077 22.8682 53.9128C22.9074 53.8179 22.9275 53.7162 22.9274 53.6136V41.9053C24.4801 43.0149 26.273 43.7419 28.16 44.0274C30.0469 44.3129 31.9746 44.1486 33.7861 43.548C35.5976 42.9474 37.2416 41.9275 38.5842 40.5713C39.9269 39.215 40.9303 37.5609 41.5126 35.7434C42.095 33.926 42.2399 31.9968 41.9355 30.1128C41.6311 28.2288 40.886 26.4433 39.7609 24.9017C38.6359 23.3602 37.1626 22.1062 35.4611 21.2418C33.7597 20.3774 31.8781 19.9271 29.9697 19.9276V19.9265ZM29.9697 38.9388C28.6068 38.9388 27.2744 38.5347 26.1412 37.7775C25.008 37.0203 24.1247 35.9441 23.6032 34.6849C23.0816 33.4257 22.9451 32.0401 23.211 30.7034C23.4769 29.3667 24.1332 28.1388 25.097 27.1751C26.0607 26.2113 27.2886 25.555 28.6253 25.2891C29.962 25.0233 31.3476 25.1597 32.6068 25.6813C33.8659 26.2029 34.9422 27.0861 35.6994 28.2193C36.4566 29.3526 36.8607 30.6849 36.8607 32.0478C36.8587 33.8748 36.1321 35.6264 34.8402 36.9183C33.5483 38.2102 31.7967 38.9369 29.9697 38.9388Z" fill="#21CE99"/>
<path d="M49.7136 16.6781C51.1274 15.5744 51.3787 13.5336 50.2749 12.1198C49.1712 10.706 47.1303 10.4547 45.7166 11.5585C44.3028 12.6622 44.0515 14.7031 45.1553 16.1168C46.259 17.5306 48.2998 17.7819 49.7136 16.6781Z" fill="#21CE99"/>
</svg>
